<?xml version="1.0" encoding="UTF-8" standalone="no"?>
<!-- Created with Inkscape (http://www.inkscape.org/) -->

<svg
   viewBox="53.5 77.2 110.2 131.4"
   preserveAspectRatio="none"
   version="1.1"
   id="svg1"
   xmlns="http://www.w3.org/2000/svg"
   xmlns:svg="http://www.w3.org/2000/svg">
  <g id="layer1">
    <path
       fill="#fcebd2"
       d="m 53.935842,200.95777 c 0.138906,-7.13476 0.113241,-14.90954 0.08837,-22.43217 -0.009,-2.7141 -0.01773,-5.39539 -0.01879,-8.00206 l -0.01852,-51.8123 c -0.0011,-1.98755 -0.0037,-3.98753 -0.0063,-5.99493 -0.01138,-8.25129 -0.02275,-16.629852 0.08652,-24.81315 0.100277,-1.794404 0.0971,-3.766343 0.766763,-5.049572 1.412081,-2.7051 3.90181,-4.615657 5.815541,-4.808273 4.197086,-0.422275 8.534929,-0.396346 12.790488,-0.370681 h 0.0172 c 1.07315,0.0063 2.141273,0.0127 3.200665,0.01191 l 29.887601,-0.01217 32.56756,-0.0217 c 1.1086,-0.0034 2.21192,-0.02117 3.32052,-0.03916 l 0.0132,-2.65e-4 c 1.94733,-0.03148 3.9026,-0.06297 5.87904,-0.01508 0.80169,0.01932 1.64042,-0.0066 2.49238,-0.03334 2.87866,-0.08969 5.94783,-0.185208 8.56456,1.431396 1.21444,0.751417 3.8391,3.49885 3.86821,6.798204 0.005,2.246842 0.005,4.504532 0.005,6.764338 0,0.499798 0,0.99986 0,1.499923 0,2.012685 0,4.025635 0.005,6.0333 l 0.0476,36.97102 0.0185,44.2767 c 0,1.71502 0.0159,3.92721 0.0344,6.3029 l 0.003,0.2839 c 0.037,4.94771 0.0767,10.54073 -0.0265,13.8168 -0.92604,1.88119 -2.17488,4.40029 -3.51631,4.4958 -3.97405,2.11773 -11.65225,1.9013 -17.40694,1.73911 -1.37583,-0.0386 -2.6379,-0.0743 -3.7174,-0.0743 l -30.39004,0.003 -30.657533,0.0196 c -0.928159,2.6e-4 -1.856317,10e-4 -2.784475,0.002 h -0.07911 c -3.444346,0.003 -6.889485,0.006 -10.333037,-0.0257 -3.478477,-0.0323 -5.819511,-0.25083 -8.928894,-3.78645 -0.723106,-0.74825 -1.057275,-1.83436 -1.588558,-3.15886 z"
       id="path756"
       style="stroke-width:0.264583" />
    <path
       fill="#f5e3bf"
       d="m 53.710417,199.22369 c 3.627437,5.41602 5.3594,6.38254 9.754658,6.38545 1.946275,0.001 3.899958,-0.0254 5.853906,-0.0521 l 0.04974,-8e-4 c 2.112169,-0.0291 4.224073,-0.0579 6.326981,-0.0521 l 31.989978,0.041 33.51742,0.0246 c 1.05568,0.002 2.11402,0.013 3.17235,0.0241 2.08492,0.022 4.17248,0.0439 6.2574,-0.006 0.65881,-0.0156 1.30439,-0.006 1.93675,0.004 3.87085,0.0595 7.29985,0.11219 10.63889,-5.71897 -0.7911,3.64332 -1.53987,4.32409 -3.29141,6.06769 l -0.0952,0.29845 c -3.97405,2.11773 -11.65225,1.9013 -17.40694,1.73911 -1.37583,-0.0386 -2.6379,-0.0743 -3.7174,-0.0743 l -30.39004,0.003 -30.657535,0.0196 c -0.928159,2.6e-4 -1.856317,0.001 -2.784475,0.002 h -0.07911 c -3.444346,0.003 -6.889485,0.006 -10.333037,-0.0257 -3.478477,-0.0323 -5.819511,-0.25083 -8.928894,-3.78645 -0.535781,-1.6764 -1.205971,-3.31947 -1.813983,-4.89294 z"
       id="path757"
       style="stroke-width:0.264583" />
  </g>
</svg>
